<svg xmlns="http://www.w3.org/2000/svg" viewBox="0 0 841.89 595.28"><switch><g><g fill="#1A2751"><path d="M340.843 391.672H325.44l-2.938 7.109h-7.867l14.787-33.177h7.583l14.834 33.177h-8.057l-2.939-7.109zm-2.417-5.828l-5.261-12.702-5.261 12.702h10.522zM404.688 392.621v6.16H379v-33.177h25.071v6.162h-17.44v7.203h15.402v5.974h-15.402v7.678h18.057zM455.639 398.781l-6.398-9.242h-7.061v9.242h-7.678v-33.177h14.359c8.863 0 14.408 4.598 14.408 12.039 0 4.977-2.512 8.626-6.824 10.474l7.439 10.664h-8.245zm-7.203-26.921h-6.256v11.564h6.256c4.691 0 7.061-2.18 7.061-5.781-.001-3.65-2.37-5.783-7.061-5.783zM490.953 382.192c0-9.857 7.678-17.156 18.15-17.156 10.428 0 18.152 7.252 18.152 17.156 0 9.907-7.725 17.157-18.152 17.157-10.472.001-18.15-7.296-18.15-17.157zm28.531 0c0-6.303-4.455-10.615-10.381-10.615-5.924 0-10.379 4.313-10.379 10.615 0 6.306 4.455 10.618 10.379 10.618 5.926.001 10.381-4.312 10.381-10.618z"/></g><linearGradient id="a" x1="307.903" x2="293.487" y1="345.03" y2="299.802" gradientUnits="userSpaceOnUse"><stop offset=".156" stop-color="#13a9e2"/><stop offset="1" stop-color="#243066"/></linearGradient><path fill="url(#a)" fill-rule="evenodd" d="M322.813 330.377c.01-.139.019-.277.024-.416-.18 12.117-8.144 22.344-19.113 25.906a27.54 27.54 0 0 1-7.822-4.02c-6.848-5.033-11.292-13.146-11.295-22.299v-.008a27.545 27.545 0 0 0-7.035-18.424 44.963 44.963 0 0 0 11.55-8.592 44.1 44.1 0 0 0 1.946-2.131 45.272 45.272 0 0 1 4.827 6.843l.02.033c1.469 2.416 2.62 5.109 3.517 7.785.931 2.777 1.653 5.65 2.014 8.561.102.818.172 1.637.221 2.459.07 1.172.054 2.295.054 3.465 0 .447.028.889.083 1.326.652 5.209 5.096 9.236 10.48 9.236 5.551.003 10.104-4.281 10.529-9.724z" clip-rule="evenodd"/><linearGradient id="b" x1="265.906" x2="221.503" y1="290.886" y2="163.371" gradientUnits="userSpaceOnUse"><stop offset="0" stop-color="#13a9e2"/><stop offset="1" stop-color="#243066"/></linearGradient><path fill="url(#b)" fill-rule="evenodd" d="M256.93 237.438c-15.285 0-27.676 12.391-27.676 27.676s12.391 27.676 27.676 27.676 27.678-12.391 27.678-27.676-12.393-27.676-27.678-27.676zm0 38.239c-5.833 0-10.563-4.73-10.563-10.563s4.73-10.563 10.563-10.563c5.835 0 10.565 4.73 10.565 10.563s-4.73 10.563-10.565 10.563z" clip-rule="evenodd"/><radialGradient id="c" cx="257.597" cy="291.904" r="57.642" gradientUnits="userSpaceOnUse"><stop offset=".156" stop-color="#13a9e2"/><stop offset="1" stop-color="#243066"/></radialGradient><path fill="url(#c)" fill-rule="evenodd" d="M291.068 300.395a45.072 45.072 0 0 1-13.495 10.723 44.693 44.693 0 0 1-20.644 5.018 44.686 44.686 0 0 1-20.643-5.018 45.088 45.088 0 0 1-13.496-10.723 45.11 45.11 0 0 1 7.616-7.071 44.452 44.452 0 0 1 5.88-3.648c5.07 5.671 12.439 9.24 20.643 9.24s15.574-3.569 20.646-9.24a45.042 45.042 0 0 1 13.493 10.719z" clip-rule="evenodd"/><linearGradient id="d" x1="227.304" x2="235.638" y1="332.824" y2="309.157" gradientUnits="userSpaceOnUse"><stop offset="0" stop-color="#13a9e2"/><stop offset="1" stop-color="#243066"/></linearGradient><path fill="url(#d)" d="M239.398 352.311a2.945 2.945 0 0 1-2.94 2.941h-14.852a2.937 2.937 0 0 1-2.335-1.258l-.082-.127c-.011-.014-.021-.031-.032-.047a44.683 44.683 0 0 1-7.119-24.271 44.715 44.715 0 0 1 10.753-29.154 45.088 45.088 0 0 0 13.496 10.723 27.565 27.565 0 0 0-7.033 18.432c0 8.174 3.545 15.521 9.182 20.586a2.93 2.93 0 0 1 .962 2.175z"/><path fill="#CBCBCB" d="M322.811 304.781c0 .025 0 .051.003.076v-.152c-.003.025-.003.051-.003.076z"/><linearGradient id="e" x1="330.118" x2="306.128" y1="316.584" y2="354.901" gradientUnits="userSpaceOnUse"><stop offset=".156" stop-color="#13a9e2"/><stop offset="1" stop-color="#243066"/></linearGradient><path fill="url(#e)" d="M339.928 304.625v.303c.002-.051.004-.102.004-.15 0-.051-.002-.102-.004-.153zm-3.089-2.785h.302c-.051-.002-.101-.004-.151-.004s-.102.002-.151.004z"/><linearGradient id="f" x1="332.884" x2="308.884" y1="318.324" y2="356.657" gradientUnits="userSpaceOnUse"><stop offset=".156" stop-color="#13a9e2"/><stop offset="1" stop-color="#243066"/></linearGradient><path fill="url(#f)" d="M339.928 304.625v26.238c-.516 10.986-7.438 20.297-17.114 24.281a27.656 27.656 0 0 1-10.53 2.072c-2.987 0-5.862-.473-8.559-1.35 10.97-3.563 18.934-13.789 19.113-25.906.003-.025.003-.049.003-.072a10.054 10.054 0 0 0 0-.698c0-.021 0-.045-.003-.07-.002-.285-.013-.57-.024-.852v-23.564a2.942 2.942 0 0 1 2.938-2.865h11.389a2.946 2.946 0 0 1 2.787 2.786z"/><linearGradient id="g" x1="326.251" x2="336.251" y1="293.272" y2="293.272" gradientUnits="userSpaceOnUse"><stop offset="0" stop-color="#4ab754"/><stop offset="1" stop-color="#e9e742"/></linearGradient><path fill="url(#g)" d="M329.335 297.889a4.987 4.987 0 0 0 6.534-2.701 5.005 5.005 0 0 0-4.615-6.918 4.99 4.99 0 0 0-4.621 3.085 5.004 5.004 0 0 0 2.702 6.534z"/><linearGradient id="h" x1="318.828" x2="343.672" y1="281.604" y2="281.604" gradientUnits="userSpaceOnUse"><stop offset="0" stop-color="#4ab754"/><stop offset="1" stop-color="#e9e742"/></linearGradient><path fill="url(#h)" d="M336.01 271.05c-6.33-2.63-13.601.37-16.23 6.711-2.146 5.169-.533 10.941 3.568 14.328.445.367.91.714 1.412 1.021.01-.78.17-1.561.489-2.33a6.487 6.487 0 0 1 8.49-3.51c2.45 1 3.94 3.34 4.01 5.819.49-.297.957-.634 1.403-.999a12.263 12.263 0 0 0 3.567-4.811c2.631-6.328-.369-13.598-6.709-16.229z"/><linearGradient id="i" x1="315.106" x2="320.71" y1="270.212" y2="270.212" gradientUnits="userSpaceOnUse"><stop offset="0" stop-color="#4ab754"/><stop offset="1" stop-color="#e9e742"/></linearGradient><path fill="url(#i)" fill-rule="evenodd" d="M317.121 268.042l3.089 2.332a1.26 1.26 0 0 1 .247 1.763 1.26 1.26 0 0 1-1.763.245l-3.089-2.332a1.258 1.258 0 0 1 1.516-2.008z" clip-rule="evenodd"/><linearGradient id="j" x1="324.181" x2="327.889" y1="264.428" y2="264.428" gradientUnits="userSpaceOnUse"><stop offset="0" stop-color="#4ab754"/><stop offset="1" stop-color="#e9e742"/></linearGradient><path fill="url(#j)" fill-rule="evenodd" d="M326.636 262.2l1.191 3.683a1.255 1.255 0 0 1-.808 1.583 1.26 1.26 0 0 1-1.586-.809l-1.191-3.683a1.26 1.26 0 0 1 2.394-.774z" clip-rule="evenodd"/><linearGradient id="k" x1="334.182" x2="337.835" y1="264.353" y2="264.353" gradientUnits="userSpaceOnUse"><stop offset="0" stop-color="#4ab754"/><stop offset="1" stop-color="#e9e742"/></linearGradient><path fill="url(#k)" fill-rule="evenodd" d="M337.78 262.872l-1.137 3.7a1.256 1.256 0 0 1-1.57.833 1.26 1.26 0 0 1-.836-1.572l1.139-3.699a1.258 1.258 0 1 1 2.404.738z" clip-rule="evenodd"/><linearGradient id="l" x1="341.44" x2="347.008" y1="270.012" y2="270.012" gradientUnits="userSpaceOnUse"><stop offset="0" stop-color="#4ab754"/><stop offset="1" stop-color="#e9e742"/></linearGradient><path fill="url(#l)" fill-rule="evenodd" d="M346.522 269.815l-3.052 2.379a1.26 1.26 0 0 1-1.547-1.986l3.054-2.377a1.258 1.258 0 1 1 1.545 1.984z" clip-rule="evenodd"/><linearGradient id="m" x1="344.513" x2="350.898" y1="278.922" y2="278.922" gradientUnits="userSpaceOnUse"><stop offset="0" stop-color="#4ab754"/><stop offset="1" stop-color="#e9e742"/></linearGradient><path fill="url(#m)" fill-rule="evenodd" d="M349.626 280.199l-3.868-.038a1.258 1.258 0 0 1 .025-2.516l3.869.039a1.258 1.258 0 1 1-.026 2.515z" clip-rule="evenodd"/><linearGradient id="n" x1="311.419" x2="317.805" y1="278.922" y2="278.922" gradientUnits="userSpaceOnUse"><stop offset="0" stop-color="#4ab754"/><stop offset="1" stop-color="#e9e742"/></linearGradient><path fill="url(#n)" fill-rule="evenodd" d="M316.532 280.199l-3.868-.038a1.258 1.258 0 0 1 .025-2.516l3.869.039a1.258 1.258 0 1 1-.026 2.515z" clip-rule="evenodd"/><path fill="#1A2751" d="M174.098 356.439l-15.771-22.781H140.92v22.781h-18.925v-81.775h35.396c21.846 0 35.514 11.331 35.514 29.671 0 12.268-6.191 21.262-16.822 25.818l18.341 26.285h-20.326zm-17.757-66.355h-15.42v28.505h15.42c11.565 0 17.407-5.375 17.407-14.254 0-8.994-5.842-14.251-17.407-14.251zM432.117 356.439L432 307.375l-24.065 40.42h-8.527l-23.948-39.369v48.014h-17.757v-81.775h15.653l30.607 50.816 30.141-50.816h15.537l.232 81.775h-17.756zM531.106 341.252v15.188H467.79v-81.775h61.799v15.187h-42.99v17.756h37.967v14.721h-37.967v18.924h44.507zM548.981 315.551c0-24.648 18.926-42.289 44.393-42.289 14.137 0 25.936 5.141 33.645 14.486l-12.148 11.215c-5.49-6.309-12.383-9.58-20.561-9.58-15.305 0-26.168 10.748-26.168 26.167 0 15.422 10.863 26.168 26.168 26.168 8.178 0 15.07-3.27 20.561-9.695l12.148 11.215c-7.709 9.463-19.508 14.604-33.762 14.604-25.35 0-44.276-17.641-44.276-42.291zM719.894 274.665v81.775h-18.926v-33.527H663.82v33.527h-18.926v-81.775h18.926v32.242h37.148v-32.242h18.926z"/></g></switch></svg>